<?xml version="1.0" encoding="UTF-8" standalone="no"?>
<svg
   xmlns:dc="http://purl.org/dc/elements/1.1/"
   xmlns:cc="http://creativecommons.org/ns#"
   xmlns:rdf="http://www.w3.org/1999/02/22-rdf-syntax-ns#"
   xmlns:svg="http://www.w3.org/2000/svg"
   xmlns="http://www.w3.org/2000/svg"
   xmlns:sodipodi="http://sodipodi.sourceforge.net/DTD/sodipodi-0.dtd"
   xmlns:inkscape="http://www.inkscape.org/namespaces/inkscape"
   width="2048"
   height="2048"
   viewBox="0 0 2048 2048"
   version="1.1"
   id="svg3682"
   sodipodi:docname="cloud-link.svg"
   inkscape:version="0.92.1 r15371">
  <metadata
     id="metadata3688">
    <rdf:RDF>
      <cc:Work
         rdf:about="">
        <dc:format>image/svg+xml</dc:format>
        <dc:type
           rdf:resource="http://purl.org/dc/dcmitype/StillImage" />
        <dc:title />
      </cc:Work>
    </rdf:RDF>
  </metadata>
  <defs
     id="defs3686" />
  <sodipodi:namedview
     pagecolor="#ffffff"
     bordercolor="#666666"
     borderopacity="1"
     objecttolerance="10"
     gridtolerance="10"
     guidetolerance="10"
     inkscape:pageopacity="0"
     inkscape:pageshadow="2"
     inkscape:window-width="3840"
     inkscape:window-height="2028"
     id="namedview3684"
     showgrid="true"
     showguides="true"
     inkscape:guide-bbox="true"
     inkscape:zoom="0.45254834"
     inkscape:cx="2018.6053"
     inkscape:cy="405.44379"
     inkscape:window-x="-16"
     inkscape:window-y="-16"
     inkscape:window-maximized="1"
     inkscape:current-layer="svg3682">
    <sodipodi:guide
       position="-863.73411,223.25331"
       orientation="0,1"
       id="guide3718"
       inkscape:locked="false" />
    <sodipodi:guide
       position="-1594.0856,415.19422"
       orientation="0,1"
       id="guide3730"
       inkscape:locked="false" />
    <inkscape:grid
       type="xygrid"
       id="grid3767" />
  </sodipodi:namedview>
  <path
     style="fill:#5a5a5a;fill-opacity:1"
     d="M 804 485 C 662.6666 485 542 535 442 635 C 342.00003 735.00002 292 855.6666 292 997 C 292 1007 292.6666 1021.3333 294 1040 C 216.6666 1076 154.3333 1130.5 107 1203.5 C 59.66659 1276.5 36 1357 36 1445 C 36 1568.3334 79.83329 1673.8334 167.5 1761.5 C 255.1666 1849.1667 360.66663 1893 484 1893 L 1572 1893 C 1678 1893 1768.5 1855.5 1843.5 1780.5 C 1918.5 1705.5 1956 1615 1956 1509 C 1956 1419 1928 1339.1667 1872 1269.5 C 1816 1199.8333 1745 1155 1659 1135 C 1686.3333 1093 1700 1047 1700 997 C 1700 987.9087 1699.5776 978.99149 1698.75 970.24219 C 1694.176 972.00323 1689.5515 973.63954 1684.8867 975.16992 C 1645.9508 990.81461 1603.9478 999.00977 1560.7148 999.00977 C 1543.4236 999.00977 1526.3427 997.65705 1509.5742 995.04297 C 1510.9919 1010.1359 1507.7931 1025.3244 1498.8633 1037.4922 C 1485.2023 1058.4354 1476.9238 1081.7118 1473.4609 1105.6484 C 1473.0679 1112.7069 1472.47 1119.7269 1471.6445 1126.6953 C 1469.4995 1201.7338 1512.4056 1278.4726 1584.541 1307.0625 C 1623.3058 1323.7019 1666.5016 1330.6387 1699.7949 1363.2188 C 1758.5325 1412.7358 1778.3901 1494.8324 1758.7656 1567.6797 C 1734.512 1636.627 1669.4049 1698.4623 1593.6523 1701.6055 C 1237.3571 1703.1327 881.00605 1701.8273 524.68945 1702.2617 C 448.98925 1706.1171 366.91338 1695.9781 312.80078 1636.7246 C 220.84788 1563.6779 201.17173 1423.8512 257.17383 1323.5234 C 281.01813 1273.4861 331.46123 1235.5225 373.125 1209.9727 C 435.1953 1180.152 486.80211 1089.0941 484.25391 1026.4102 C 481.70571 963.72636 498.16648 851.29648 558.77148 788.95898 C 615.65558 719.99838 700.78137 674.95786 790.70117 675.34766 C 795.12347 675.36666 799.5573 675.49678 804 675.73828 C 820.98829 675.52152 838.00466 676.61644 854.80273 679.07422 C 905.02459 649.65579 962.48052 633.99023 1022.2852 633.99023 C 1057.8926 633.99023 1092.6196 639.68315 1125.5293 650.44922 C 1119.0084 630.48368 1114.3557 609.84362 1111.6758 588.74414 C 1104.8814 583.31602 1097.8344 578.06792 1090.5 573 C 1004.8333 514.33334 909.3333 485 804 485 z "
     id="path3690" />
  <path
     style="fill:#5a5a5a;fill-opacity:1;stroke-width:0.84129906"
     d="m 1612.0352,130 c -67.8648,0 -125.0732,23.83615 -171.625,71.50977 l -173.3086,174.15039 c -46.552,46.55188 -69.8262,103.47928 -69.8262,170.7832 0,68.98653 24.6769,127.59756 74.0332,175.83203 l -74.0332,74.0332 c -48.2345,-49.35621 -106.5646,-74.0332 -174.9902,-74.0332 -67.30399,0 -124.5123,23.55522 -171.62504,70.66797 L 675.66992,967.9336 C 628.55718,1015.0464 605,1072.2547 605,1139.5586 c 0,67.304 23.83616,124.2313 71.50977,170.7832 l 123.67187,122.8301 C 846.73352,1479.7237 903.66095,1503 970.9648,1503 c 67.8648,0 125.0732,-23.8362 171.625,-71.5098 l 173.3086,-174.1504 c 46.5519,-46.5518 69.8282,-103.4792 69.8282,-170.7832 0,-68.9865 -24.6789,-127.5975 -74.0352,-175.832 l 74.0352,-74.03319 c 48.2344,49.35619 106.5625,74.03319 174.9882,74.03319 67.3039,0 124.5122,-23.5552 171.625,-70.66796 L 1907.3301,665.06641 C 1954.4428,617.95366 1978,560.74533 1978,493.44141 1978,426.13748 1954.1638,369.21008 1906.4902,322.6582 L 1782.8184,199.82812 C 1736.2665,153.27624 1679.3391,130 1612.0352,130 Z m 0,190.88477 c 15.0474,0 25.6713,4.1602 37.0878,14.75 l 123.0352,122.20117 c 10.8831,10.88419 14.957,20.75853 14.957,35.60547 0,15.58491 -4.197,25.68947 -14.959,36.45117 L 1597.166,704.88281 C 1587.2765,714.77234 1577.2666,719 1560.7148,719 c -5.0819,0 -9.6168,-0.51914 -13.8691,-1.51758 2.8775,-2.88504 7.0673,-6.90639 9.0078,-9.02344 4.5321,-4.94407 9.0306,-10.76692 14.6817,-18.5 6.9591,-9.52291 12.3935,-19.74934 15.5039,-30.85742 2.7863,-9.95086 4.0312,-20.35958 4.0312,-31.05273 0,-29.2828 -11.5048,-57.31922 -32.1523,-77.9668 -20.6476,-20.64765 -48.684,-32.15234 -77.9668,-32.15234 -10.6935,0 -21.1023,1.24511 -31.0528,4.03125 -11.1086,3.1104 -21.3347,8.54504 -30.8574,15.5039 -7.7329,5.651 -13.556,10.14768 -18.5,14.67969 -2.3676,2.17033 -6.7427,6.71436 -10.0937,10.07617 -1.4687,-4.85463 -2.1289,-10.00844 -2.1289,-15.77734 0,-15.58472 4.1972,-25.68936 14.9589,-36.45117 a 29.358631,29.358631 0 0 0 0.051,-0.0508 l 173.2559,-174.09766 v -0.002 c 10.761,-10.76021 20.8654,-14.95703 36.4493,-14.95703 z m -589.75,592.27343 c 5.0819,0 9.6168,0.5191 13.8691,1.5176 -2.8775,2.885 -7.0673,6.9064 -9.0078,9.0234 -4.5321,4.9441 -9.0306,10.7669 -14.6817,18.5 -6.9591,9.5229 -12.3935,19.7494 -15.5039,30.8574 -2.7863,9.9509 -4.0312,20.3596 -4.0312,31.0528 0,29.2828 11.5048,57.3192 32.1523,77.9668 20.6476,20.6476 48.684,32.1523 77.9668,32.1523 10.6935,0 21.1023,-1.2451 31.0528,-4.0312 11.1086,-3.1104 21.3347,-8.5451 30.8574,-15.5039 7.7329,-5.651 13.556,-10.1477 18.5,-14.6797 2.3676,-2.1704 6.7427,-6.7144 10.0937,-10.0762 1.4687,4.8546 2.1289,10.0084 2.1289,15.7773 0,15.5848 -4.1972,25.6894 -14.9589,36.4512 a 29.358631,29.358631 0 0 0 -0.051,0.051 l -173.2559,174.0977 c 0,0 0,0 0,0 -10.761,10.7602 -20.8654,14.957 -36.4493,14.957 -15.04736,0 -25.67135,-4.1602 -37.08785,-14.75 L 810.8418,1174.3223 c -10.8831,-10.8842 -14.95703,-20.7586 -14.95703,-35.6055 0,-15.5849 4.19708,-25.6895 14.95898,-36.4512 L 985.834,927.2754 c 9.8895,-9.8895 19.8994,-14.1172 36.4512,-14.1172 z"
     id="path3680"
     inkscape:connector-curvature="0" />
</svg>
