<?xml version="1.0" encoding="UTF-8" standalone="no"?>
<svg
   xmlns:dc="http://purl.org/dc/elements/1.1/"
   xmlns:cc="http://creativecommons.org/ns#"
   xmlns:rdf="http://www.w3.org/1999/02/22-rdf-syntax-ns#"
   xmlns:svg="http://www.w3.org/2000/svg"
   xmlns="http://www.w3.org/2000/svg"
   xmlns:sodipodi="http://sodipodi.sourceforge.net/DTD/sodipodi-0.dtd"
   xmlns:inkscape="http://www.inkscape.org/namespaces/inkscape"
   width="2048"
   height="2048"
   viewBox="0 0 2048 2048"
   version="1.1"
   id="svg3682"
   sodipodi:docname="cloud-link.svg"
   inkscape:version="0.92.1 r15371">
  <metadata
     id="metadata3688">
    <rdf:RDF>
      <cc:Work
         rdf:about="">
        <dc:format>image/svg+xml</dc:format>
        <dc:type
           rdf:resource="http://purl.org/dc/dcmitype/StillImage" />
        <dc:title></dc:title>
      </cc:Work>
    </rdf:RDF>
  </metadata>
  <defs
     id="defs3686" />
  <sodipodi:namedview
     pagecolor="#ffffff"
     bordercolor="#666666"
     borderopacity="1"
     objecttolerance="10"
     gridtolerance="10"
     guidetolerance="10"
     inkscape:pageopacity="0"
     inkscape:pageshadow="2"
     inkscape:window-width="3840"
     inkscape:window-height="2028"
     id="namedview3684"
     showgrid="true"
     showguides="true"
     inkscape:guide-bbox="true"
     inkscape:zoom="0.25"
     inkscape:cx="-2016.153"
     inkscape:cy="1909.6785"
     inkscape:window-x="-16"
     inkscape:window-y="-16"
     inkscape:window-maximized="1"
     inkscape:current-layer="svg3682">
    <sodipodi:guide
       position="-863.73411,223.25331"
       orientation="0,1"
       id="guide3718"
       inkscape:locked="false" />
    <sodipodi:guide
       position="-1594.0856,415.19422"
       orientation="0,1"
       id="guide3730"
       inkscape:locked="false" />
    <inkscape:grid
       type="xygrid"
       id="grid3767" />
  </sodipodi:namedview>
  <path
     d="m 804,485 c -141.3334,0 -262,50 -362,150 -99.99997,100.00002 -150,220.6666 -150,362 0,10 0.6666,24.3333 2,43 -77.3334,36 -139.6667,90.5 -187,163.5 -47.33341,73 -71,153.5 -71,241.5 0,123.3334 43.83329,228.8334 131.5,316.5 87.6666,87.6667 193.16663,131.5 316.5,131.5 h 1088 c 106,0 196.5,-37.5 271.5,-112.5 75,-75 112.5,-165.5 112.5,-271.5 0,-90 -28,-169.8333 -84,-239.5 -56,-69.6667 -127,-114.5 -213,-134.5 27.3333,-42 41,-88 41,-138 0,-9.0913 -0.4224,-18.0085 -1.25,-26.7578 -33.8419,13.0294 -70.2471,19.7773 -108.0352,19.7773 -29.2522,0 -57.6674,-4.1215 -84.7343,-12.0937 6.6284,20.1392 5.2313,42.7404 -7.1172,59.5664 -60.0335,92.0354 -16.4758,229.0831 85.6777,269.5703 38.7648,16.6394 81.9606,23.5763 115.2539,56.1563 58.7376,49.517 78.5952,131.6136 58.9707,204.4609 -24.2536,68.9473 -89.3607,130.7826 -165.1133,133.9258 -356.2952,1.5272 -712.64625,0.2218 -1068.96285,0.6562 -75.7002,3.8554 -157.77607,-6.2836 -211.88867,-65.5371 -91.9529,-73.0467 -111.62905,-212.8734 -55.62695,-313.2012 23.8443,-50.0373 74.2874,-88.0009 115.95117,-113.5507 62.0703,-29.8207 113.67711,-120.8786 111.12891,-183.5625 -2.5482,-62.6838 13.91257,-175.11372 74.51757,-237.45122 56.8841,-68.9606 142.00989,-114.00112 231.92969,-113.61132 4.4223,0.019 8.85613,0.14912 13.29883,0.39062 49.94291,-0.63725 100.13939,10.01772 144.26562,33.52539 32.70188,-12.04031 67.71908,-18.2832 104.01958,-18.2832 C 1115,691 1157.9063,701 1226.3457,743.03906 1193.6932,670.01717 1151.8507,615.39205 1090.5,573 1004.8333,514.33334 909.3333,485 804,485 Z m 614.9414,450.6738 -1.0918,1.0918 c 0.5412,-0.2456 1.0866,-0.4806 1.6309,-0.7168 -0.1791,-0.1261 -0.3602,-0.2485 -0.5391,-0.375 z"
     id="path3690"
     inkscape:connector-curvature="0"
     sodipodi:nodetypes="ssscsscssssscscsccccccccccscccccccscccc"
     style="fill:#5a5a5a;fill-opacity:1" />
  <path
     style="fill:#5a5a5a;fill-opacity:1;stroke-width:0.84129906"
     d="m 1642.0352,154 c -67.8648,0 -125.0732,23.83615 -171.625,71.50977 l -173.3086,174.15039 c -46.552,46.55188 -69.8262,103.47928 -69.8262,170.7832 0,68.98653 24.6769,127.59756 74.0332,175.83203 l -74.0332,74.0332 c -48.2345,-49.35621 -106.5646,-74.0332 -174.9902,-74.0332 -67.30399,0 -124.5123,23.55522 -171.62504,70.66797 L 705.66992,991.9336 C 658.55718,1039.0464 635,1096.2547 635,1163.5586 c 0,67.304 23.83616,124.2313 71.50977,170.7832 l 123.67187,122.8301 C 876.73352,1503.7237 933.66095,1527 1000.9648,1527 c 67.8648,0 125.0732,-23.8362 171.625,-71.5098 l 173.3086,-174.1504 c 46.5519,-46.5518 69.8282,-103.4792 69.8282,-170.7832 0,-68.9865 -24.6789,-127.5975 -74.0352,-175.832 l 74.0352,-74.03319 c 48.2344,49.35619 106.5625,74.03319 174.9882,74.03319 67.3039,0 124.5122,-23.5552 171.625,-70.66796 L 1937.3301,689.06641 C 1984.4428,641.95366 2008,584.74533 2008,517.44141 2008,450.13748 1984.1638,393.21008 1936.4902,346.6582 L 1812.8184,223.82812 C 1766.2665,177.27624 1709.3391,154 1642.0352,154 Z m 0,190.88477 c 15.0474,0 25.6713,4.1602 37.0878,14.75 l 123.0352,122.20117 c 10.8831,10.88419 14.957,20.75853 14.957,35.60547 0,15.58491 -4.197,25.68947 -14.959,36.45117 L 1627.166,728.88281 C 1617.2765,738.77234 1607.2666,743 1590.7148,743 c -5.0819,0 -9.6168,-0.51914 -13.8691,-1.51758 2.8775,-2.88504 7.0673,-6.90639 9.0078,-9.02344 4.5321,-4.94407 9.0306,-10.76692 14.6817,-18.5 6.9591,-9.52291 12.3935,-19.74934 15.5039,-30.85742 2.7863,-9.95086 4.0312,-20.35958 4.0312,-31.05273 0,-29.2828 -11.5048,-57.31922 -32.1523,-77.9668 -20.6476,-20.64765 -48.684,-32.15234 -77.9668,-32.15234 -10.6935,0 -21.1023,1.24511 -31.0528,4.03125 -11.1086,3.1104 -21.3347,8.54504 -30.8574,15.5039 -7.7329,5.651 -13.556,10.14768 -18.5,14.67969 -2.3676,2.17033 -6.7427,6.71436 -10.0937,10.07617 -1.4687,-4.85463 -2.1289,-10.00844 -2.1289,-15.77734 0,-15.58472 4.1972,-25.68936 14.9589,-36.45117 a 29.358631,29.358631 0 0 0 0.051,-0.0508 l 173.2559,-174.09766 v -0.002 c 10.761,-10.76021 20.8654,-14.95703 36.4493,-14.95703 z m -589.75,592.27343 c 5.0819,0 9.6168,0.5191 13.8691,1.5176 -2.8775,2.885 -7.0673,6.9064 -9.0078,9.0234 -4.5321,4.9441 -9.0306,10.7669 -14.6817,18.5 -6.9591,9.5229 -12.3935,19.7494 -15.5039,30.8574 -2.7863,9.9509 -4.0312,20.3596 -4.0312,31.0528 0,29.2828 11.5048,57.3192 32.1523,77.9668 20.6476,20.6476 48.684,32.1523 77.9668,32.1523 10.6935,0 21.1023,-1.2451 31.0528,-4.0312 11.1086,-3.1104 21.3347,-8.5451 30.8574,-15.5039 7.7329,-5.651 13.556,-10.1477 18.5,-14.6797 2.3676,-2.1704 6.7427,-6.7144 10.0937,-10.0762 1.4687,4.8546 2.1289,10.0084 2.1289,15.7773 0,15.5848 -4.1972,25.6894 -14.9589,36.4512 a 29.358631,29.358631 0 0 0 -0.051,0.051 l -173.2559,174.0977 c 0,0 0,0 0,0 -10.761,10.7602 -20.8654,14.957 -36.4493,14.957 -15.04736,0 -25.67135,-4.1602 -37.08785,-14.75 L 840.8418,1198.3223 c -10.8831,-10.8842 -14.95703,-20.7586 -14.95703,-35.6055 0,-15.5849 4.19708,-25.6895 14.95898,-36.4512 L 1015.834,951.2754 c 9.8895,-9.8895 19.8994,-14.1172 36.4512,-14.1172 z"
     id="path3680"
     inkscape:connector-curvature="0" />
</svg>
